<svg width="24" height="24" viewBox="0 0 24 24" fill="none" xmlns="http://www.w3.org/2000/svg">
<mask id="mask0_2_102" style="mask-type:alpha" maskUnits="userSpaceOnUse" x="0" y="0" width="24" height="24">
<rect width="24" height="24" fill="#D9D9D9"/>
</mask>
<g mask="url(#mask0_2_102)">
<path d="M6.55556 19C6.12778 19 5.76157 18.8477 5.45694 18.5431C5.15231 18.2384 5 17.8722 5 17.4444V6.55556C5 6.12778 5.15231 5.76157 5.45694 5.45694C5.76157 5.15231 6.12778 5 6.55556 5H17.4444C17.8722 5 18.2384 5.15231 18.5431 5.45694C18.8477 5.76157 19 6.12778 19 6.55556V17.4444C19 17.8722 18.8477 18.2384 18.5431 18.5431C18.2384 18.8477 17.8722 19 17.4444 19H6.55556ZM6.55556 17.4444H17.4444V6.55556H6.55556V17.4444Z" fill="#1C1B1F"/>
</g>
</svg>
