<svg width="48" height="48" viewBox="0 0 48 48" fill="none" xmlns="http://www.w3.org/2000/svg">
<mask id="mask0_12_13" style="mask-type:alpha" maskUnits="userSpaceOnUse" x="0" y="0" width="48" height="48">
<rect width="48" height="48" fill="#D9D9D9"/>
</mask>
<g mask="url(#mask0_12_13)">
<path d="M7 40C6.2 40 5.5 39.6917 4.9 39.075C4.3 38.4583 4 37.7667 4 37V11C4 10.2333 4.3 9.54167 4.9 8.925C5.5 8.30833 6.2 8 7 8H21.05L24.05 11H41C41.7667 11 42.4583 11.3083 43.075 11.925C43.6917 12.5417 44 13.2333 44 14V37C44 37.7667 43.6917 38.4583 43.075 39.075C42.4583 39.6917 41.7667 40 41 40H7Z" fill="#1C1B1F"/>
</g>
</svg>
