<svg width="48" height="48" viewBox="0 0 48 48" fill="none" xmlns="http://www.w3.org/2000/svg">
<mask id="mask0_12_19" style="mask-type:alpha" maskUnits="userSpaceOnUse" x="0" y="0" width="48" height="48">
<rect width="48" height="48" fill="#D9D9D9"/>
</mask>
<g mask="url(#mask0_12_19)">
<path d="M24.0135 44C21.2555 44 18.6638 43.475 16.2385 42.425C13.8128 41.375 11.6917 39.9417 9.875 38.125C8.05833 36.3083 6.625 34.186 5.575 31.758C4.525 29.33 4 26.7357 4 23.975C4 21.2143 4.525 18.62 5.575 16.192C6.625 13.764 8.05833 11.65 9.875 9.85C11.6917 8.05 13.814 6.625 16.242 5.575C18.67 4.525 21.2643 4 24.025 4C26.7857 4 29.38 4.525 31.808 5.575C34.236 6.625 36.35 8.05 38.15 9.85C39.95 11.65 41.375 13.7667 42.425 16.2C43.475 18.6333 44 21.2288 44 23.9865C44 26.7445 43.475 29.3362 42.425 31.7615C41.375 34.1872 39.95 36.3053 38.15 38.116C36.35 39.9263 34.2333 41.3597 31.8 42.416C29.3667 43.472 26.7712 44 24.0135 44ZM24 41C28.746 41 32.7658 39.3417 36.0595 36.025C39.3532 32.7083 41 28.7 41 24V23.35C40.8 24.2167 40.3432 24.9417 39.6295 25.525C38.9162 26.1083 38.073 26.4 37.1 26.4H33.1C32 26.4 31.0583 26.0083 30.275 25.225C29.4917 24.4417 29.1 23.5 29.1 22.4V20.4H21.1V16.4C21.1 15.3 21.4917 14.3583 22.275 13.575C23.0583 12.7917 24 12.4 25.1 12.4H27.1V11.3C27.1 10.7667 27.325 10.1 27.775 9.3C28.225 8.5 28.7333 8.01667 29.3 7.85C28.4667 7.58333 27.6107 7.375 26.732 7.225C25.8537 7.075 24.943 7 24 7C19.3 7 15.2917 8.64683 11.975 11.9405C8.65833 15.2342 7 19.254 7 24H14.5C16.7 24 18.5833 24.7833 20.15 26.35C21.7167 27.9167 22.5 29.8 22.5 32V34H16.5V39.25C17.6333 39.8167 18.8283 40.25 20.085 40.55C21.3417 40.85 22.6467 41 24 41Z" fill="#1C1B1F"/>
</g>
</svg>
